<?xml version="1.0" encoding="iso-8859-1"?>
<!-- Generator: Adobe Illustrator 19.0.0, SVG Export Plug-In . SVG Version: 6.00 Build 0)  -->
<svg version="1.1" id="Layer_1" xmlns="http://www.w3.org/2000/svg" xmlns:xlink="http://www.w3.org/1999/xlink" x="0px" y="0px"
	 viewBox="0 0 489.2 489.2" style="enable-background:new 0 0 489.2 489.2;" xml:space="preserve">
<g>
	<path d="M469,288.2H339.3V174.4c0-10.6-8.5-20.2-20.2-20.2H190.4v-134c0-10.6-8.5-20.2-20.2-20.2h-150C8.5,0,0,8.5,0,20.2V469
		c0,11.7,8.5,20.2,20.2,20.2H469c11.7,0,20.2-8.5,20.2-20.2V308.4C489.2,297.8,480.7,288.2,469,288.2z M148.9,448.8H40.4V40.4h108.5
		V448.8z M298.8,448.8H190.4V194.6h108.5v254.2H298.8z M448.8,448.8H340.3V328.6h108.5V448.8z"/>
</g>
<g>
</g>
<g>
</g>
<g>
</g>
<g>
</g>
<g>
</g>
<g>
</g>
<g>
</g>
<g>
</g>
<g>
</g>
<g>
</g>
<g>
</g>
<g>
</g>
<g>
</g>
<g>
</g>
<g>
</g>
</svg>
