<svg height="512pt" viewBox="-35 0 511 512" width="512pt" xmlns="http://www.w3.org/2000/svg"><path d="m441.003906 180.667969c-3.476562-62.101563-30.046875-122.296875-72.894531-165.148438-5.890625-5.886719-15.4375-5.886719-21.324219 0l-30.414062 30.414063c-33.484375-28.621094-76.910156-45.933594-124.308594-45.933594-105.628906 0-191.5625 85.933594-191.5625 191.5625 0 47.398438 17.3125 90.824219 45.933594 124.308594l-30.414063 30.414062c-5.886719 5.886719-5.886719 15.433594 0 21.324219 43.453125 43.449219 100.136719 68.84375 160.964844 72.453125v41.78125h-31.074219c-8.328125 0-15.078125 6.75-15.078125 15.078125s6.75 15.078125 15.078125 15.078125h92.308594c8.324219 0 15.078125-6.75 15.078125-15.078125s-6.753906-15.078125-15.078125-15.078125h-31.078125v-41.78125c60.828125-3.609375 117.515625-29.003906 160.964844-72.453125 26.613281-26.613281 46.339843-57.011719 58.636719-90.355469 11.332031-30.738281 16.128906-63.230468 14.261718-96.585937zm-135.683594 125.773437c-7.074218-11.445312-21.949218-20.011718-45.078124-26.023437-31.816407-8.273438-40.234376-30.980469-38.132813-44.230469.941406-5.925781 4.058594-12.875 13.601563-12.292969 9.855468.597657 24.113281.253907 34.027343-9.609375 11.835938-11.773437 10.886719-28.96875 9.570313-52.769531-.625-11.285156-1.332032-24.074219-.933594-38.835937.453125-16.867188 7.046875-21.664063 9.210938-23.242188 9.347656-6.804688 25.210937-5.484375 34.304687-3.664062 19.835937 26.8125 31.582031 59.953124 31.582031 95.789062-.003906 44.914062-18.445312 85.59375-48.152344 114.878906zm-12.601562-240.957031c-7.792969 1.484375-15.683594 4.371094-22.742188 9.472656-9.53125 6.886719-21.042968 20.617188-21.75 46.910157-.429687 16 .347657 30.035156.96875 41.3125.621094 11.195312 1.464844 26.496093-.71875 29.703124-.40625.226563-2.933593 1.394532-10.941406.910157-23.253906-1.402344-41.40625 13.726562-45.210937 37.667969-4.730469 29.808593 14.472656 66.21875 60.332031 78.144531 24.636719 6.402343 27.253906 13.222656 27.265625 13.289062.230469.996094-1.683594 4.242188-4.03125 6.554688-20.710937 12.636719-44.476563 20.730469-69.902344 22.914062-3.421875-7.25-8.675781-17.527343-15.269531-27.757812-18.210938-28.246094-37.351562-41.570313-56.882812-39.59375-10.53125 1.0625-19.480469 5.921875-25.878907 14.050781-5.460937 6.945312-8.375 15.492188-9.859375 23.660156-19.730468-14.179687-36.152344-32.6875-47.84375-54.132812 3.355469.304687 6.570313.472656 9.617188.472656 15.960937 0 27.734375-4.171875 36.058594-12.582031 17.964843-18.15625 10.136718-47.398438 4.957031-66.753907-1.089844-4.0625-2.292969-8.554687-2.800781-11.453124 2.5-1.058594 6.835937-2.289063 10.207031-3.246094 14.199219-4.03125 35.65625-10.121094 51.3125-30.996094 18.484375-24.644531 9.070312-47.355469.769531-67.390625-5.15625-12.4375-10.445312-25.234375-11.316406-40.65625 13.699218-3.792969 28.117187-5.828125 43.003906-5.828125 38.039062 0 73.035156 13.234375 100.65625 35.328125zm-165.855469 273.714844c0-7.363281 1.058594-16.734375 4.792969-21.484375 1.117188-1.417969 2.429688-2.417969 5.210938-2.699219 5.324218-.542969 15.53125 5.910156 28.296874 25.609375 2.414063 3.71875 4.628907 7.484375 6.621094 11.074219-15.792968-1.988281-30.878906-6.273438-44.921875-12.5zm-6.96875-291.980469c2.335938 16.148438 7.878907 29.527344 12.621094 40.96875 8.414063 20.296875 10.5 27.703125 2.964844 37.75-9.550781 12.734375-22.703125 16.46875-35.417969 20.078125-7.101562 2.011719-13.804688 3.917969-19.46875 7.464844-8.777344 5.5-13.351562 14.144531-12.871094 24.347656.261719 5.613281 2.011719 12.140625 4.035156 19.699219 2.980469 11.140625 8.535157 31.882812 2.738282 37.738281-1.277344 1.289063-8.78125 6.914063-37.617188.730469-4.046875-14.121094-6.222656-29.027344-6.222656-44.433594 0-63.070312 36.371094-117.800781 89.238281-144.34375zm226.890625 299.066406c-41.328125 41.324219-96.277344 64.085938-154.722656 64.085938-53.390625 0-103.855469-19.003906-143.691406-53.792969l19.386718-19.382813c33.480469 28.621094 76.90625 45.933594 124.304688 45.933594 105.628906 0 191.5625-85.9375 191.5625-191.5625 0-47.402344-17.308594-90.824218-45.933594-124.308594l19.351563-19.347656c65.898437 76.527344 80.757812 207.359375-10.257813 298.375zm0 0"/></svg>